<mxfile modified="2025-04-11T00:11:13.124Z" host="Electron" agent="Mozilla/5.0 (Windows NT 10.0; Win64; x64) AppleWebKit/537.36 (KHTML, like Gecko) draw.io/24.4.0 Chrome/120.0.6099.109 Electron/28.1.0 Safari/537.36" etag="JtYYOHqdo7Dyw0MTr8s1" version="24.4.0" type="device">
  <diagram id="Ht1M8jgEwFfnCIfOTk4-" name="Page-1">
    <mxGraphModel dx="2836" dy="1188" grid="1" gridSize="10" guides="1" tooltips="1" connect="1" arrows="1" fold="1" page="1" pageScale="1" pageWidth="827" pageHeight="1169" math="0" shadow="0">
      <root>
        <mxCell id="0" />
        <mxCell id="1" parent="0" />
        <mxCell id="JELW8N4ve27KQPAaT4NB-25" style="edgeStyle=orthogonalEdgeStyle;rounded=0;orthogonalLoop=1;jettySize=auto;html=1;" edge="1" parent="1" source="JELW8N4ve27KQPAaT4NB-1" target="JELW8N4ve27KQPAaT4NB-15">
          <mxGeometry relative="1" as="geometry" />
        </mxCell>
        <mxCell id="JELW8N4ve27KQPAaT4NB-1" value="&lt;font color=&quot;#ffffff&quot;&gt;APIGATEWAY&lt;/font&gt;" style="sketch=0;points=[[0,0,0],[0.25,0,0],[0.5,0,0],[0.75,0,0],[1,0,0],[0,1,0],[0.25,1,0],[0.5,1,0],[0.75,1,0],[1,1,0],[0,0.25,0],[0,0.5,0],[0,0.75,0],[1,0.25,0],[1,0.5,0],[1,0.75,0]];outlineConnect=0;fontColor=#232F3E;fillColor=#8C4FFF;strokeColor=#ffffff;dashed=0;verticalLabelPosition=bottom;verticalAlign=top;align=center;html=1;fontSize=12;fontStyle=0;aspect=fixed;shape=mxgraph.aws4.resourceIcon;resIcon=mxgraph.aws4.api_gateway;" vertex="1" parent="1">
          <mxGeometry x="560" y="371" width="78" height="78" as="geometry" />
        </mxCell>
        <mxCell id="JELW8N4ve27KQPAaT4NB-27" style="edgeStyle=orthogonalEdgeStyle;rounded=0;orthogonalLoop=1;jettySize=auto;html=1;" edge="1" parent="1" source="JELW8N4ve27KQPAaT4NB-15" target="JELW8N4ve27KQPAaT4NB-21">
          <mxGeometry relative="1" as="geometry" />
        </mxCell>
        <mxCell id="JELW8N4ve27KQPAaT4NB-15" value="&lt;font color=&quot;#ffffff&quot;&gt;VPCLINK&lt;/font&gt;" style="sketch=0;outlineConnect=0;fontColor=#232F3E;gradientColor=none;fillColor=#8C4FFF;strokeColor=none;dashed=0;verticalLabelPosition=bottom;verticalAlign=top;align=center;html=1;fontSize=12;fontStyle=0;aspect=fixed;pointerEvents=1;shape=mxgraph.aws4.vpc_virtual_private_cloud_vpc;" vertex="1" parent="1">
          <mxGeometry x="696" y="550" width="78" height="76" as="geometry" />
        </mxCell>
        <mxCell id="JELW8N4ve27KQPAaT4NB-17" value="AWS Fargate" style="sketch=0;outlineConnect=0;fontColor=#232F3E;gradientColor=none;strokeColor=#ffffff;fillColor=#232F3E;dashed=0;verticalLabelPosition=middle;verticalAlign=bottom;align=center;html=1;whiteSpace=wrap;fontSize=10;fontStyle=1;spacing=3;shape=mxgraph.aws4.productIcon;prIcon=mxgraph.aws4.fargate;" vertex="1" parent="1">
          <mxGeometry x="1446" y="560" width="80" height="100" as="geometry" />
        </mxCell>
        <mxCell id="JELW8N4ve27KQPAaT4NB-30" style="edgeStyle=orthogonalEdgeStyle;rounded=0;orthogonalLoop=1;jettySize=auto;html=1;" edge="1" parent="1" source="JELW8N4ve27KQPAaT4NB-21" target="JELW8N4ve27KQPAaT4NB-22">
          <mxGeometry relative="1" as="geometry" />
        </mxCell>
        <mxCell id="JELW8N4ve27KQPAaT4NB-21" value="Network Load Balancer" style="sketch=0;outlineConnect=0;fontColor=#232F3E;gradientColor=none;strokeColor=#ffffff;fillColor=#232F3E;dashed=0;verticalLabelPosition=middle;verticalAlign=bottom;align=center;html=1;whiteSpace=wrap;fontSize=10;fontStyle=1;spacing=3;shape=mxgraph.aws4.productIcon;prIcon=mxgraph.aws4.network_load_balancer;" vertex="1" parent="1">
          <mxGeometry x="866" y="533" width="80" height="110" as="geometry" />
        </mxCell>
        <mxCell id="JELW8N4ve27KQPAaT4NB-41" style="edgeStyle=orthogonalEdgeStyle;rounded=0;orthogonalLoop=1;jettySize=auto;html=1;entryX=0;entryY=0.5;entryDx=0;entryDy=0;" edge="1" parent="1" source="JELW8N4ve27KQPAaT4NB-22" target="JELW8N4ve27KQPAaT4NB-12">
          <mxGeometry relative="1" as="geometry">
            <mxPoint x="1196" y="460" as="targetPoint" />
          </mxGeometry>
        </mxCell>
        <mxCell id="JELW8N4ve27KQPAaT4NB-42" style="edgeStyle=orthogonalEdgeStyle;rounded=0;orthogonalLoop=1;jettySize=auto;html=1;entryX=0;entryY=0.5;entryDx=0;entryDy=0;" edge="1" parent="1" source="JELW8N4ve27KQPAaT4NB-22" target="JELW8N4ve27KQPAaT4NB-37">
          <mxGeometry relative="1" as="geometry">
            <mxPoint x="1166" y="790" as="targetPoint" />
          </mxGeometry>
        </mxCell>
        <mxCell id="JELW8N4ve27KQPAaT4NB-22" value="Application Load Balancer" style="sketch=0;outlineConnect=0;fontColor=#232F3E;gradientColor=none;strokeColor=#ffffff;fillColor=#232F3E;dashed=0;verticalLabelPosition=middle;verticalAlign=bottom;align=center;html=1;whiteSpace=wrap;fontSize=10;fontStyle=1;spacing=3;shape=mxgraph.aws4.productIcon;prIcon=mxgraph.aws4.application_load_balancer;" vertex="1" parent="1">
          <mxGeometry x="1036" y="533" width="80" height="110" as="geometry" />
        </mxCell>
        <mxCell id="JELW8N4ve27KQPAaT4NB-23" value="&lt;font color=&quot;#ffffff&quot;&gt;INTERNET GATEWAY&lt;/font&gt;" style="sketch=0;outlineConnect=0;fontColor=#232F3E;gradientColor=none;fillColor=#8C4FFF;strokeColor=none;dashed=0;verticalLabelPosition=bottom;verticalAlign=top;align=center;html=1;fontSize=12;fontStyle=0;aspect=fixed;pointerEvents=1;shape=mxgraph.aws4.internet_gateway;" vertex="1" parent="1">
          <mxGeometry x="360" y="371" width="78" height="78" as="geometry" />
        </mxCell>
        <mxCell id="JELW8N4ve27KQPAaT4NB-24" style="edgeStyle=orthogonalEdgeStyle;rounded=0;orthogonalLoop=1;jettySize=auto;html=1;entryX=0;entryY=0.5;entryDx=0;entryDy=0;entryPerimeter=0;" edge="1" parent="1" source="JELW8N4ve27KQPAaT4NB-23" target="JELW8N4ve27KQPAaT4NB-1">
          <mxGeometry relative="1" as="geometry" />
        </mxCell>
        <mxCell id="JELW8N4ve27KQPAaT4NB-12" value="Private subnet" style="points=[[0,0],[0.25,0],[0.5,0],[0.75,0],[1,0],[1,0.25],[1,0.5],[1,0.75],[1,1],[0.75,1],[0.5,1],[0.25,1],[0,1],[0,0.75],[0,0.5],[0,0.25]];outlineConnect=0;gradientColor=none;html=1;whiteSpace=wrap;fontSize=12;fontStyle=0;container=1;pointerEvents=0;collapsible=0;recursiveResize=0;shape=mxgraph.aws4.group;grIcon=mxgraph.aws4.group_security_group;grStroke=0;strokeColor=#00A4A6;fillColor=#E6F6F7;verticalAlign=top;align=left;spacingLeft=30;fontColor=#147EBA;dashed=0;" vertex="1" parent="1">
          <mxGeometry x="1266" y="350" width="450" height="150" as="geometry" />
        </mxCell>
        <mxCell id="JELW8N4ve27KQPAaT4NB-10" value="" style="group" vertex="1" connectable="0" parent="1">
          <mxGeometry x="1437" y="371" width="98" height="88" as="geometry" />
        </mxCell>
        <mxCell id="JELW8N4ve27KQPAaT4NB-7" value="" style="sketch=0;points=[[0,0,0],[0.25,0,0],[0.5,0,0],[0.75,0,0],[1,0,0],[0,1,0],[0.25,1,0],[0.5,1,0],[0.75,1,0],[1,1,0],[0,0.25,0],[0,0.5,0],[0,0.75,0],[1,0.25,0],[1,0.5,0],[1,0.75,0]];outlineConnect=0;fontColor=#232F3E;fillColor=#ED7100;strokeColor=#ffffff;dashed=0;verticalLabelPosition=bottom;verticalAlign=top;align=center;html=1;fontSize=12;fontStyle=0;aspect=fixed;shape=mxgraph.aws4.resourceIcon;resIcon=mxgraph.aws4.ecs;" vertex="1" parent="JELW8N4ve27KQPAaT4NB-10">
          <mxGeometry width="78" height="78" as="geometry" />
        </mxCell>
        <mxCell id="JELW8N4ve27KQPAaT4NB-8" value="&lt;font color=&quot;#000000&quot;&gt;TASKS&lt;/font&gt;" style="sketch=0;points=[[0,0,0],[0.25,0,0],[0.5,0,0],[0.75,0,0],[1,0,0],[0,1,0],[0.25,1,0],[0.5,1,0],[0.75,1,0],[1,1,0],[0,0.25,0],[0,0.5,0],[0,0.75,0],[1,0.25,0],[1,0.5,0],[1,0.75,0]];outlineConnect=0;fontColor=#ffffff;fillColor=#ED7100;strokeColor=#ffffff;dashed=0;verticalLabelPosition=bottom;verticalAlign=top;align=center;html=1;fontSize=12;fontStyle=0;aspect=fixed;shape=mxgraph.aws4.resourceIcon;resIcon=mxgraph.aws4.ecs;" vertex="1" parent="JELW8N4ve27KQPAaT4NB-10">
          <mxGeometry x="20" y="10" width="78" height="78" as="geometry" />
        </mxCell>
        <mxCell id="JELW8N4ve27KQPAaT4NB-37" value="Private subnet" style="points=[[0,0],[0.25,0],[0.5,0],[0.75,0],[1,0],[1,0.25],[1,0.5],[1,0.75],[1,1],[0.75,1],[0.5,1],[0.25,1],[0,1],[0,0.75],[0,0.5],[0,0.25]];outlineConnect=0;gradientColor=none;html=1;whiteSpace=wrap;fontSize=12;fontStyle=0;container=1;pointerEvents=0;collapsible=0;recursiveResize=0;shape=mxgraph.aws4.group;grIcon=mxgraph.aws4.group_security_group;grStroke=0;strokeColor=#00A4A6;fillColor=#E6F6F7;verticalAlign=top;align=left;spacingLeft=30;fontColor=#147EBA;dashed=0;" vertex="1" parent="1">
          <mxGeometry x="1266" y="710" width="450" height="150" as="geometry" />
        </mxCell>
        <mxCell id="JELW8N4ve27KQPAaT4NB-38" value="" style="group" vertex="1" connectable="0" parent="1">
          <mxGeometry x="1437" y="731" width="98" height="88" as="geometry" />
        </mxCell>
        <mxCell id="JELW8N4ve27KQPAaT4NB-39" value="" style="sketch=0;points=[[0,0,0],[0.25,0,0],[0.5,0,0],[0.75,0,0],[1,0,0],[0,1,0],[0.25,1,0],[0.5,1,0],[0.75,1,0],[1,1,0],[0,0.25,0],[0,0.5,0],[0,0.75,0],[1,0.25,0],[1,0.5,0],[1,0.75,0]];outlineConnect=0;fontColor=#232F3E;fillColor=#ED7100;strokeColor=#ffffff;dashed=0;verticalLabelPosition=bottom;verticalAlign=top;align=center;html=1;fontSize=12;fontStyle=0;aspect=fixed;shape=mxgraph.aws4.resourceIcon;resIcon=mxgraph.aws4.ecs;" vertex="1" parent="JELW8N4ve27KQPAaT4NB-38">
          <mxGeometry width="78" height="78" as="geometry" />
        </mxCell>
        <mxCell id="JELW8N4ve27KQPAaT4NB-40" value="&lt;font color=&quot;#000000&quot;&gt;TASKS&lt;/font&gt;" style="sketch=0;points=[[0,0,0],[0.25,0,0],[0.5,0,0],[0.75,0,0],[1,0,0],[0,1,0],[0.25,1,0],[0.5,1,0],[0.75,1,0],[1,1,0],[0,0.25,0],[0,0.5,0],[0,0.75,0],[1,0.25,0],[1,0.5,0],[1,0.75,0]];outlineConnect=0;fontColor=#ffffff;fillColor=#ED7100;strokeColor=#ffffff;dashed=0;verticalLabelPosition=bottom;verticalAlign=top;align=center;html=1;fontSize=12;fontStyle=0;aspect=fixed;shape=mxgraph.aws4.resourceIcon;resIcon=mxgraph.aws4.ecs;" vertex="1" parent="JELW8N4ve27KQPAaT4NB-38">
          <mxGeometry x="20" y="10" width="78" height="78" as="geometry" />
        </mxCell>
        <mxCell id="JELW8N4ve27KQPAaT4NB-43" value="" style="rounded=1;arcSize=10;dashed=1;fillColor=none;gradientColor=none;dashPattern=8 3 1 3;strokeWidth=2;" vertex="1" parent="1">
          <mxGeometry x="1386.25" y="240" width="199.5" height="710" as="geometry" />
        </mxCell>
        <mxCell id="JELW8N4ve27KQPAaT4NB-44" value="&lt;font color=&quot;#ffffff&quot;&gt;AUTO SCALLING&lt;/font&gt;" style="sketch=0;points=[[0,0,0],[0.25,0,0],[0.5,0,0],[0.75,0,0],[1,0,0],[0,1,0],[0.25,1,0],[0.5,1,0],[0.75,1,0],[1,1,0],[0,0.25,0],[0,0.5,0],[0,0.75,0],[1,0.25,0],[1,0.5,0],[1,0.75,0]];outlineConnect=0;fontColor=#232F3E;fillColor=#ED7100;strokeColor=#ffffff;dashed=0;verticalLabelPosition=bottom;verticalAlign=top;align=center;html=1;fontSize=12;fontStyle=0;aspect=fixed;shape=mxgraph.aws4.resourceIcon;resIcon=mxgraph.aws4.auto_scaling2;" vertex="1" parent="1">
          <mxGeometry x="1452" y="250" width="78" height="78" as="geometry" />
        </mxCell>
        <mxCell id="JELW8N4ve27KQPAaT4NB-45" value="AWS Cloud" style="points=[[0,0],[0.25,0],[0.5,0],[0.75,0],[1,0],[1,0.25],[1,0.5],[1,0.75],[1,1],[0.75,1],[0.5,1],[0.25,1],[0,1],[0,0.75],[0,0.5],[0,0.25]];outlineConnect=0;gradientColor=none;html=1;whiteSpace=wrap;fontSize=12;fontStyle=0;container=1;pointerEvents=0;collapsible=0;recursiveResize=0;shape=mxgraph.aws4.group;grIcon=mxgraph.aws4.group_aws_cloud_alt;strokeColor=#232F3E;fillColor=none;verticalAlign=top;align=left;spacingLeft=30;fontColor=#232F3E;dashed=0;" vertex="1" parent="1">
          <mxGeometry x="310" y="70" width="1790" height="980" as="geometry" />
        </mxCell>
        <mxCell id="JELW8N4ve27KQPAaT4NB-46" value="Region" style="points=[[0,0],[0.25,0],[0.5,0],[0.75,0],[1,0],[1,0.25],[1,0.5],[1,0.75],[1,1],[0.75,1],[0.5,1],[0.25,1],[0,1],[0,0.75],[0,0.5],[0,0.25]];outlineConnect=0;gradientColor=none;html=1;whiteSpace=wrap;fontSize=12;fontStyle=0;container=1;pointerEvents=0;collapsible=0;recursiveResize=0;shape=mxgraph.aws4.group;grIcon=mxgraph.aws4.group_region;strokeColor=#00A4A6;fillColor=none;verticalAlign=top;align=left;spacingLeft=30;fontColor=#147EBA;dashed=1;" vertex="1" parent="JELW8N4ve27KQPAaT4NB-45">
          <mxGeometry x="30" y="51" width="1760" height="899" as="geometry" />
        </mxCell>
        <mxCell id="JELW8N4ve27KQPAaT4NB-47" value="VPC" style="points=[[0,0],[0.25,0],[0.5,0],[0.75,0],[1,0],[1,0.25],[1,0.5],[1,0.75],[1,1],[0.75,1],[0.5,1],[0.25,1],[0,1],[0,0.75],[0,0.5],[0,0.25]];outlineConnect=0;gradientColor=none;html=1;whiteSpace=wrap;fontSize=12;fontStyle=0;container=1;pointerEvents=0;collapsible=0;recursiveResize=0;shape=mxgraph.aws4.group;grIcon=mxgraph.aws4.group_vpc2;strokeColor=#8C4FFF;fillColor=none;verticalAlign=top;align=left;spacingLeft=30;fontColor=#AAB7B8;dashed=0;" vertex="1" parent="JELW8N4ve27KQPAaT4NB-46">
          <mxGeometry x="250" y="77" width="1160" height="783" as="geometry" />
        </mxCell>
        <mxCell id="JELW8N4ve27KQPAaT4NB-48" value="&lt;font color=&quot;#ffffff&quot;&gt;WAF&lt;/font&gt;&lt;div&gt;&lt;font color=&quot;#ffffff&quot;&gt;&lt;br&gt;&lt;/font&gt;&lt;/div&gt;" style="sketch=0;points=[[0,0,0],[0.25,0,0],[0.5,0,0],[0.75,0,0],[1,0,0],[0,1,0],[0.25,1,0],[0.5,1,0],[0.75,1,0],[1,1,0],[0,0.25,0],[0,0.5,0],[0,0.75,0],[1,0.25,0],[1,0.5,0],[1,0.75,0]];outlineConnect=0;fontColor=#232F3E;fillColor=#DD344C;strokeColor=#ffffff;dashed=0;verticalLabelPosition=bottom;verticalAlign=top;align=center;html=1;fontSize=12;fontStyle=0;aspect=fixed;shape=mxgraph.aws4.resourceIcon;resIcon=mxgraph.aws4.waf;" vertex="1" parent="JELW8N4ve27KQPAaT4NB-47">
          <mxGeometry x="448" y="74" width="78" height="78" as="geometry" />
        </mxCell>
        <mxCell id="JELW8N4ve27KQPAaT4NB-50" value="&lt;font color=&quot;#fafafa&quot;&gt;CERTIFICATE MANAGER&lt;/font&gt;" style="sketch=0;points=[[0,0,0],[0.25,0,0],[0.5,0,0],[0.75,0,0],[1,0,0],[0,1,0],[0.25,1,0],[0.5,1,0],[0.75,1,0],[1,1,0],[0,0.25,0],[0,0.5,0],[0,0.75,0],[1,0.25,0],[1,0.5,0],[1,0.75,0]];outlineConnect=0;fontColor=#232F3E;fillColor=#DD344C;strokeColor=#ffffff;dashed=0;verticalLabelPosition=bottom;verticalAlign=top;align=center;html=1;fontSize=12;fontStyle=0;aspect=fixed;shape=mxgraph.aws4.resourceIcon;resIcon=mxgraph.aws4.certificate_manager_3;" vertex="1" parent="JELW8N4ve27KQPAaT4NB-46">
          <mxGeometry x="1470" y="99" width="78" height="78" as="geometry" />
        </mxCell>
        <mxCell id="JELW8N4ve27KQPAaT4NB-52" value="&lt;font color=&quot;#ffffff&quot;&gt;SECRET MANAGER&lt;/font&gt;" style="sketch=0;points=[[0,0,0],[0.25,0,0],[0.5,0,0],[0.75,0,0],[1,0,0],[0,1,0],[0.25,1,0],[0.5,1,0],[0.75,1,0],[1,1,0],[0,0.25,0],[0,0.5,0],[0,0.75,0],[1,0.25,0],[1,0.5,0],[1,0.75,0]];outlineConnect=0;fontColor=#232F3E;fillColor=#DD344C;strokeColor=#ffffff;dashed=0;verticalLabelPosition=bottom;verticalAlign=top;align=center;html=1;fontSize=12;fontStyle=0;aspect=fixed;shape=mxgraph.aws4.resourceIcon;resIcon=mxgraph.aws4.secrets_manager;" vertex="1" parent="JELW8N4ve27KQPAaT4NB-46">
          <mxGeometry x="1471" y="229" width="78" height="78" as="geometry" />
        </mxCell>
        <mxCell id="JELW8N4ve27KQPAaT4NB-53" value="&lt;font color=&quot;#ffffff&quot;&gt;CLOUDWATCH&lt;/font&gt;" style="sketch=0;points=[[0,0,0],[0.25,0,0],[0.5,0,0],[0.75,0,0],[1,0,0],[0,1,0],[0.25,1,0],[0.5,1,0],[0.75,1,0],[1,1,0],[0,0.25,0],[0,0.5,0],[0,0.75,0],[1,0.25,0],[1,0.5,0],[1,0.75,0]];points=[[0,0,0],[0.25,0,0],[0.5,0,0],[0.75,0,0],[1,0,0],[0,1,0],[0.25,1,0],[0.5,1,0],[0.75,1,0],[1,1,0],[0,0.25,0],[0,0.5,0],[0,0.75,0],[1,0.25,0],[1,0.5,0],[1,0.75,0]];outlineConnect=0;fontColor=#232F3E;fillColor=#E7157B;strokeColor=#ffffff;dashed=0;verticalLabelPosition=bottom;verticalAlign=top;align=center;html=1;fontSize=12;fontStyle=0;aspect=fixed;shape=mxgraph.aws4.resourceIcon;resIcon=mxgraph.aws4.cloudwatch_2;" vertex="1" parent="JELW8N4ve27KQPAaT4NB-46">
          <mxGeometry x="1470" y="361" width="78" height="78" as="geometry" />
        </mxCell>
        <mxCell id="JELW8N4ve27KQPAaT4NB-54" value="Certificador" style="text;html=1;align=center;verticalAlign=middle;whiteSpace=wrap;rounded=0;" vertex="1" parent="JELW8N4ve27KQPAaT4NB-46">
          <mxGeometry x="1590" y="129" width="110" height="30" as="geometry" />
        </mxCell>
        <mxCell id="JELW8N4ve27KQPAaT4NB-55" value="Dados sensíveis&lt;div&gt;como vars envs e segredos&lt;/div&gt;" style="text;html=1;align=center;verticalAlign=middle;whiteSpace=wrap;rounded=0;" vertex="1" parent="JELW8N4ve27KQPAaT4NB-46">
          <mxGeometry x="1570" y="249" width="170" height="71" as="geometry" />
        </mxCell>
        <mxCell id="JELW8N4ve27KQPAaT4NB-56" value="Logs da nossa aplicação" style="text;html=1;align=center;verticalAlign=middle;whiteSpace=wrap;rounded=0;" vertex="1" parent="JELW8N4ve27KQPAaT4NB-46">
          <mxGeometry x="1560" y="368" width="170" height="71" as="geometry" />
        </mxCell>
        <mxCell id="JELW8N4ve27KQPAaT4NB-49" style="edgeStyle=orthogonalEdgeStyle;rounded=0;orthogonalLoop=1;jettySize=auto;html=1;entryX=0.5;entryY=1;entryDx=0;entryDy=0;entryPerimeter=0;" edge="1" parent="1" source="JELW8N4ve27KQPAaT4NB-22" target="JELW8N4ve27KQPAaT4NB-48">
          <mxGeometry relative="1" as="geometry" />
        </mxCell>
        <mxCell id="JELW8N4ve27KQPAaT4NB-57" style="edgeStyle=orthogonalEdgeStyle;rounded=0;orthogonalLoop=1;jettySize=auto;html=1;entryX=0;entryY=0.5;entryDx=0;entryDy=0;entryPerimeter=0;" edge="1" parent="1" source="JELW8N4ve27KQPAaT4NB-1" target="JELW8N4ve27KQPAaT4NB-48">
          <mxGeometry relative="1" as="geometry" />
        </mxCell>
      </root>
    </mxGraphModel>
  </diagram>
</mxfile>
